PathFileType  4	(X/Y/Z) C:\Users\antoi\Documents\MyRepositories\mobilecap\ResultsAnalysis
DataRate	CameraRate	NumFrames	NumMarkers	Units	OrigDataRate	OrigDataStartFrame	OrigNumFrames
100.0	100.0	4	51	mm	100.0	37	291
Frame#	Time	r_knee			r_shank_antsup			r_ankle			r_calc			r_5meta			r_toe			L_knee			L_shank_antsup			L_ankle			L_calc			L_5meta			L_toe			r_sh2			r_sh3			r_sh4			L_sh2			L_sh3			r_thigh1			r_thigh2			r_thigh3			r_thigh4			r_thigh5			L_thigh1			L_thigh2			L_thigh3			L_thigh4			r.ASIS			r.PSIS			L.ASIS			L.PSIS			C7			R_Shoulder			L_Shoulder			R_Sternum			L_Sternum			R_humerus			R_elbow_med			R_elbow_lat			R_forearm			R_wrist_radius			R_wrist_ulna			L_humerus			L_elbow_med			L_elbow_lat			L_forearm			L_wrist_radius			L_wrist_ulna			R_HJC			L_HJC			R_HJC_reg			L_HJC_reg			
		X1	Y1	Z1	X2	Y2	Z2	X3	Y3	Z3	X4	Y4	Z4	X5	Y5	Z5	X6	Y6	Z6	X7	Y7	Z7	X8	Y8	Z8	X9	Y9	Z9	X10	Y10	Z10	X11	Y11	Z11	X12	Y12	Z12	X13	Y13	Z13	X14	Y14	Z14	X15	Y15	Z15	X16	Y16	Z16	X17	Y17	Z17	X18	Y18	Z18	X19	Y19	Z19	X20	Y20	Z20	X21	Y21	Z21	X22	Y22	Z22	X23	Y23	Z23	X24	Y24	Z24	X25	Y25	Z25	X26	Y26	Z26	X27	Y27	Z27	X28	Y28	Z28	X29	Y29	Z29	X30	Y30	Z30	X31	Y31	Z31	X32	Y32	Z32	X33	Y33	Z33	X34	Y34	Z34	X35	Y35	Z35	X36	Y36	Z36	X37	Y37	Z37	X38	Y38	Z38	X39	Y39	Z39	X40	Y40	Z40	X41	Y41	Z41	X42	Y42	Z42	X43	Y43	Z43	X44	Y44	Z44	X45	Y45	Z45	X46	Y46	Z46	X47	Y47	Z47	X48	Y48	Z48	X49	Y49	Z49	X50	Y50	Z50	X51	Y51	Z51	

37	0.36000000	-1169.87664	800.97219	-432.62069	-1200.67964	756.75648	-404.16642	-1248.06437	402.44242	-464.67659	-1304.83835	363.47372	-519.93491	-1129.65599	348.04638	-422.43136	-1084.37437	371.97816	-472.66626	-1170.36431	797.80010	-734.75242	-1149.09478	709.65691	-743.20309	-1248.71769	405.86756	-713.15418	-1312.51591	366.53505	-665.21415	-1130.34840	351.86232	-729.61592	-1088.70587	371.49024	-673.38075	-1216.67040	642.97403	-402.32100	-1132.76739	750.77985	-441.94429	-1150.68356	637.30791	-456.39239	-1232.22374	733.95175	-761.37410	-1253.16729	613.50320	-756.41189	-1107.88299	1099.02838	-486.03251	-1091.34138	988.84590	-477.81756	-1108.64642	968.30008	-414.48770	-1169.62691	1096.47575	-392.07870	-1157.70365	982.19302	-389.77904	-1156.46694	1121.49678	-758.68235	-1145.44607	979.75152	-765.79480	-1268.49765	1112.23125	-763.20635	-1259.10422	972.15383	-739.88081	-1127.07012	1266.30893	-456.84202	-1314.77121	1316.23479	-534.35329	-1126.07042	1252.25978	-695.74657	-1315.75011	1315.77842	-633.00600	-1177.44201	1778.51871	-600.43622	-1116.01153	1732.64022	-435.27312	-1127.35831	1716.08057	-758.27493	-1092.22677	1660.30613	-582.26136	-1090.90891	1657.87861	-616.14487	-1136.70584	1500.71653	-348.61013	-1210.95124	1409.24762	-370.81453	-1160.98989	1414.15877	-321.31861	-1036.85727	1381.01087	-387.27535	-960.84954	1375.03618	-456.71819	-959.85991	1336.40691	-434.78918	-1169.70029	1487.75448	-832.74113	-1228.58296	1382.93687	-782.02810	-1204.90032	1385.46389	-846.99440	-1065.22348	1341.12841	-810.73283	-972.22437	1325.61381	-756.81028	-982.89204	1284.03272	-771.00499	-1209.65696	1191.27235	-490.76816	-1220.28398	1193.00642	-681.13546	-1202.44921	1194.69498	-488.96203	-1204.01635	1193.96438	-646.90336	
38	0.37000000	-1167.36066	800.36843	-432.94957	-1197.34021	756.53805	-404.59632	-1248.15845	402.64852	-464.66044	-1304.96558	363.31151	-519.85567	-1129.62685	348.19891	-422.47898	-1084.46869	372.33928	-472.60659	-1168.28728	797.21302	-734.28126	-1147.00717	708.95723	-742.85843	-1248.77119	405.80599	-713.16379	-1312.58230	366.44773	-665.15792	-1130.41051	351.88857	-729.59252	-1088.79534	371.81000	-673.50907	-1214.89095	642.60672	-402.56946	-1130.17035	749.81424	-442.41135	-1149.00845	636.52828	-456.71146	-1229.98743	733.75085	-760.97665	-1251.73212	613.58826	-756.29656	-1108.69011	1098.64403	-486.78384	-1090.63996	988.93154	-478.27384	-1107.50688	968.23835	-414.78339	-1169.81772	1095.73698	-392.13402	-1156.77142	981.39887	-390.02856	-1157.32400	1120.92800	-758.45497	-1145.13306	979.24927	-765.59156	-1269.40112	1110.61210	-763.19663	-1258.78912	970.76253	-740.19764	-1128.32701	1265.10457	-456.74579	-1315.91771	1315.80553	-534.13281	-1127.98936	1250.48880	-694.79422	-1317.10546	1315.32261	-632.66680	-1173.81032	1777.08682	-600.51162	-1112.45368	1730.94281	-435.24868	-1124.13554	1714.17949	-758.32224	-1089.44462	1658.26561	-582.40926	-1088.22990	1655.74826	-616.18922	-1135.59574	1499.16195	-348.37538	-1210.55242	1408.85317	-370.47659	-1160.95917	1412.99575	-320.63611	-1037.99825	1369.21594	-384.02169	-961.21461	1355.46978	-451.59415	-963.32540	1317.67950	-428.20951	-1167.93887	1486.41971	-833.24332	-1228.06287	1382.08084	-782.52068	-1204.37669	1384.94598	-847.94159	-1067.66513	1330.86214	-813.53505	-975.27475	1307.75548	-761.30502	-988.80557	1267.17910	-776.22910	-1211.54843	1190.48442	-490.11725	-1222.34079	1191.76882	-680.47859	-1204.06925	1193.80197	-488.52994	-1205.96603	1193.03057	-645.92499	
39	0.38000000	-1164.78247	799.67044	-433.38416	-1194.19482	756.53695	-404.84785	-1248.14798	402.55291	-464.67235	-1305.11617	363.10027	-519.68405	-1129.40202	348.43526	-422.23929	-1084.55078	372.67130	-472.58659	-1166.06337	796.60100	-733.73105	-1144.88028	708.34204	-742.77289	-1248.78484	405.76316	-713.16611	-1312.63541	366.39007	-665.14138	-1130.45111	351.94151	-729.52802	-1088.82327	372.08656	-673.55920	-1212.89134	641.72107	-402.96905	-1127.59059	748.93955	-442.78274	-1147.35168	635.69547	-457.03431	-1227.73328	733.54660	-760.67707	-1250.22873	613.51262	-756.05137	-1109.49082	1098.26436	-487.43917	-1089.89488	989.01969	-478.57150	-1106.37781	968.20430	-415.08487	-1170.01271	1094.93102	-392.23650	-1155.71518	980.79281	-390.16151	-1158.34854	1120.20632	-758.08736	-1144.70802	978.79625	-765.36499	-1270.30040	1108.97122	-763.14572	-1258.47958	969.23921	-740.24269	-1129.47222	1263.60507	-456.83900	-1316.96678	1315.41299	-533.77310	-1129.13596	1249.01699	-693.24027	-1318.31107	1314.90245	-632.36245	-1169.96152	1775.51968	-600.50809	-1108.66733	1729.03529	-435.16692	-1120.72288	1712.13111	-758.41723	-1086.44508	1656.04903	-582.56312	-1085.31422	1653.52445	-616.18650	-1134.52280	1497.49052	-348.03754	-1210.29686	1408.45276	-369.91588	-1161.20138	1411.82063	-319.69531	-1040.08799	1357.22606	-380.03572	-963.02575	1335.19399	-445.56902	-968.54130	1298.59034	-420.83213	-1166.33409	1484.89224	-833.56130	-1227.61268	1381.24359	-783.08839	-1204.13942	1384.21085	-848.48044	-1071.01429	1320.48469	-816.79971	-979.71678	1289.66548	-766.49316	-996.17745	1250.47329	-782.34376	-1213.28365	1189.53214	-489.52257	-1223.87801	1190.76642	-679.89410	-1205.40271	1193.28960	-488.20485	-1207.53363	1192.47983	-644.51133	
40	0.39000000	-1162.18865	798.92540	-433.81775	-1192.04138	756.10584	-404.75462	-1248.11415	402.48529	-464.68629	-1305.20801	362.97463	-519.58679	-1129.31234	348.57975	-422.12629	-1084.62133	372.95547	-472.54142	-1163.72411	795.93608	-733.05999	-1142.76609	707.67577	-742.61975	-1248.75616	405.74033	-713.16885	-1312.67666	366.35091	-665.14802	-1130.47800	352.01337	-729.45434	-1088.84809	372.31261	-673.61524	-1210.87186	640.91484	-403.26490	-1124.99398	748.06257	-442.96064	-1145.62867	634.92222	-457.25274	-1225.45559	733.34537	-760.47035	-1248.73344	613.34926	-755.70233	-1110.28975	1098.00253	-487.84663	-1089.12471	989.05112	-478.65592	-1105.27462	968.11069	-415.39956	-1170.18543	1094.04155	-392.31206	-1154.62157	980.32070	-390.17863	-1159.47816	1119.45259	-757.59604	-1144.24643	978.28138	-765.10079	-1271.17336	1107.31110	-763.13427	-1258.12561	967.60416	-740.11633	-1130.57075	1262.02354	-456.75112	-1317.92782	1315.03113	-533.21780	-1129.75617	1248.07608	-691.68430	-1319.36860	1314.50414	-632.03083	-1165.92012	1773.81589	-600.47853	-1104.69502	1726.90078	-435.18270	-1117.08281	1709.98744	-758.70327	-1083.28555	1653.64795	-582.66699	-1082.19511	1651.14785	-616.26812	-1133.51025	1495.65950	-347.73344	-1210.10525	1407.92946	-369.60508	-1161.70440	1410.38765	-318.95550	-1043.18165	1345.18589	-375.27931	-966.54093	1314.56567	-438.49085	-975.59008	1279.49987	-412.67473	-1164.95830	1483.01745	-833.55324	-1227.28324	1380.47490	-783.62096	-1204.36881	1383.12154	-848.33263	-1075.29719	1310.19379	-820.43842	-985.66040	1271.48247	-772.15447	-1005.08553	1234.28724	-789.27062	-1214.78512	1188.50247	-489.04700	-1224.96233	1190.13038	-679.43827	-1206.55861	1192.98844	-487.79674	-1208.82341	1192.15999	-643.10935	
